<svg width="40" height="40" viewBox="0 0 40 40" fill="none" xmlns="http://www.w3.org/2000/svg">
<rect width="40" height="40" rx="2" fill="#EEEFFF"/>
<path d="M22.9141 19.25H27.25C27.8229 19.276 28.2005 19.5495 28.3828 20.0703C28.5911 20.5911 28.487 21.0469 28.0703 21.4375L18.0703 30.1875C17.5755 30.5781 17.0547 30.6042 16.5078 30.2656C16.013 29.849 15.8828 29.3411 16.1172 28.7422L19.125 21.75H14.7109C14.1901 21.724 13.8125 21.4505 13.5781 20.9297C13.3958 20.4089 13.513 19.9531 13.9297 19.5625L23.9297 10.8125C24.4245 10.4219 24.9453 10.3958 25.4922 10.7344C25.987 11.151 26.1172 11.6589 25.8828 12.2578L22.9141 19.25Z" fill="#152561"/>
</svg>
