<svg width="40" height="40" viewBox="0 0 40 40" fill="none" xmlns="http://www.w3.org/2000/svg">
<rect width="40" height="40" rx="2" fill="#EEEFFF"/>
<path d="M13.75 11.75C13.75 11.3854 13.8672 11.0859 14.1016 10.8516C14.3359 10.6172 14.6354 10.5 15 10.5C15.3646 10.5 15.6641 10.6172 15.8984 10.8516C16.1328 11.0859 16.25 11.3854 16.25 11.75V13H21.25V11.75C21.25 11.3854 21.3672 11.0859 21.6016 10.8516C21.8359 10.6172 22.1354 10.5 22.5 10.5C22.8646 10.5 23.1641 10.6172 23.3984 10.8516C23.6328 11.0859 23.75 11.3854 23.75 11.75V13H25.625C26.1458 13.026 26.5885 13.2083 26.9531 13.5469C27.2917 13.9115 27.474 14.3542 27.5 14.875V16.75H10V14.875C10.026 14.3542 10.2083 13.9115 10.5469 13.5469C10.9115 13.2083 11.3542 13.026 11.875 13H13.75V11.75ZM27.5 28.625C27.474 29.1458 27.2917 29.5885 26.9531 29.9531C26.5885 30.2917 26.1458 30.474 25.625 30.5H11.875C11.3542 30.474 10.9115 30.2917 10.5469 29.9531C10.2083 29.5885 10.026 29.1458 10 28.625V18H27.5V28.625Z" fill="#152561"/>
</svg>
