<svg width="40" height="40" viewBox="0 0 40 40" fill="none" xmlns="http://www.w3.org/2000/svg">
<rect width="40" height="40" rx="2" fill="#EEEFFF"/>
<path d="M11.75 13H29.25V19.25C30.2396 19.276 31.0729 19.6016 31.75 20.2266V12.4531C31.724 11.9062 31.5417 11.4505 31.2031 11.0859C30.8385 10.7214 30.3958 10.526 29.875 10.5H11.125C10.6042 10.526 10.1615 10.7214 9.79688 11.0859C9.45833 11.4505 9.27604 11.9062 9.25 12.4531V20.2266C9.92708 19.6016 10.7604 19.276 11.75 19.25V13ZM18 23C18.026 23.7031 18.2734 24.2891 18.7422 24.7578C19.2109 25.2266 19.7969 25.474 20.5 25.5C21.2031 25.474 21.7891 25.2266 22.2578 24.7578C22.7266 24.2891 22.974 23.7031 23 23C22.974 22.2969 22.7266 21.7109 22.2578 21.2422C21.7891 20.7734 21.2031 20.526 20.5 20.5C19.7969 20.526 19.2109 20.7734 18.7422 21.2422C18.2734 21.7109 18.026 22.2969 18 23ZM21.4375 26.75H19.5625C18.7812 26.776 18.1172 27.0625 17.5703 27.6094C17.0495 28.1562 16.776 28.8464 16.75 29.6797C16.8021 30.1745 17.0755 30.4479 17.5703 30.5H23.4297C23.9245 30.4479 24.1979 30.1745 24.25 29.6797C24.224 28.8464 23.9505 28.1562 23.4297 27.6094C22.8828 27.0625 22.2188 26.776 21.4375 26.75ZM30.1875 26.75H28.3125C27.5312 26.776 26.8672 27.0625 26.3203 27.6094C25.7995 28.1562 25.526 28.8464 25.5 29.6797C25.5521 30.1745 25.8255 30.4479 26.3203 30.5H32.1797C32.6745 30.4479 32.9479 30.1745 33 29.6797C32.974 28.8464 32.7005 28.1562 32.1797 27.6094C31.6328 27.0625 30.9688 26.776 30.1875 26.75ZM26.75 23C26.776 23.7031 27.0234 24.2891 27.4922 24.7578C27.9609 25.2266 28.5469 25.474 29.25 25.5C29.9531 25.474 30.5391 25.2266 31.0078 24.7578C31.4766 24.2891 31.724 23.7031 31.75 23C31.724 22.2969 31.4766 21.7109 31.0078 21.2422C30.5391 20.7734 29.9531 20.526 29.25 20.5C28.5469 20.526 27.9609 20.7734 27.4922 21.2422C27.0234 21.7109 26.776 22.2969 26.75 23ZM9.25 23C9.27604 23.7031 9.52344 24.2891 9.99219 24.7578C10.4609 25.2266 11.0469 25.474 11.75 25.5C12.4531 25.474 13.0391 25.2266 13.5078 24.7578C13.9766 24.2891 14.224 23.7031 14.25 23C14.224 22.2969 13.9766 21.7109 13.5078 21.2422C13.0391 20.7734 12.4531 20.526 11.75 20.5C11.0469 20.526 10.4609 20.7734 9.99219 21.2422C9.52344 21.7109 9.27604 22.2969 9.25 23ZM12.6875 26.75H10.8125C10.0312 26.776 9.36719 27.0625 8.82031 27.6094C8.29948 28.1562 8.02604 28.8464 8 29.6797C8.05208 30.1745 8.32552 30.4479 8.82031 30.5H14.6797C15.1745 30.4479 15.4479 30.1745 15.5 29.6797C15.474 28.8464 15.2005 28.1562 14.6797 27.6094C14.1328 27.0625 13.4688 26.776 12.6875 26.75Z" fill="#152561"/>
</svg>
